<svg width="20" height="20" viewBox="0 0 20 20" fill="none" xmlns="http://www.w3.org/2000/svg">
<mask id="mask0_175_469" style="mask-type:alpha" maskUnits="userSpaceOnUse" x="0" y="0" width="20" height="20">
<rect y="20" width="20" height="20" transform="rotate(-90 0 20)" fill="#D9D9D9"/>
</mask>
<g mask="url(#mask0_175_469)">
<path d="M9.99996 12.1667L15.875 6.29167C16.0694 6.09722 16.3055 6 16.5833 6C16.8611 6 17.0972 6.09722 17.2916 6.29167C17.4861 6.48611 17.5833 6.72222 17.5833 7C17.5833 7.27778 17.4861 7.51389 17.2916 7.70833L11.0625 13.9375C10.9097 14.0903 10.743 14.2014 10.5625 14.2708C10.3819 14.3403 10.1944 14.375 9.99996 14.375C9.80551 14.375 9.61801 14.3403 9.43746 14.2708C9.2569 14.2014 9.09024 14.0903 8.93746 13.9375L2.70829 7.70833C2.51385 7.51389 2.41663 7.27778 2.41663 7C2.41663 6.72222 2.51385 6.48611 2.70829 6.29167C2.90274 6.09722 3.13885 6 3.41663 6C3.6944 6 3.93052 6.09722 4.12496 6.29167L9.99996 12.1667Z" fill="#333333"/>
</g>
</svg>
