<svg width="14" height="15" viewBox="0 0 14 15" fill="none" xmlns="http://www.w3.org/2000/svg">
<g clip-path="url(#clip0_175_127)">
<rect y="0.5" width="14" height="14" rx="7" fill="white"/>
<path d="M6.02 8.76L4.515 7.255C4.38667 7.12667 4.22333 7.0625 4.025 7.0625C3.82667 7.0625 3.66333 7.12667 3.535 7.255C3.40667 7.38333 3.3425 7.54667 3.3425 7.745C3.3425 7.94333 3.40667 8.10667 3.535 8.235L5.53 10.23C5.67 10.37 5.83333 10.44 6.02 10.44C6.20667 10.44 6.37 10.37 6.51 10.23L10.465 6.275C10.5933 6.14667 10.6575 5.98333 10.6575 5.785C10.6575 5.58667 10.5933 5.42333 10.465 5.295C10.3367 5.16667 10.1733 5.1025 9.975 5.1025C9.77667 5.1025 9.61333 5.16667 9.485 5.295L6.02 8.76ZM7 14.5C6.03167 14.5 5.12167 14.3162 4.27 13.9487C3.41833 13.5813 2.6775 13.0825 2.0475 12.4525C1.4175 11.8225 0.91875 11.0817 0.55125 10.23C0.18375 9.37833 0 8.46833 0 7.5C0 6.53167 0.18375 5.62167 0.55125 4.77C0.91875 3.91833 1.4175 3.1775 2.0475 2.5475C2.6775 1.9175 3.41833 1.41875 4.27 1.05125C5.12167 0.68375 6.03167 0.5 7 0.5C7.96833 0.5 8.87833 0.68375 9.73 1.05125C10.5817 1.41875 11.3225 1.9175 11.9525 2.5475C12.5825 3.1775 13.0813 3.91833 13.4487 4.77C13.8162 5.62167 14 6.53167 14 7.5C14 8.46833 13.8162 9.37833 13.4487 10.23C13.0813 11.0817 12.5825 11.8225 11.9525 12.4525C11.3225 13.0825 10.5817 13.5813 9.73 13.9487C8.87833 14.3162 7.96833 14.5 7 14.5Z" fill="#32BEA6"/>
</g>
<defs>
<clipPath id="clip0_175_127">
<rect y="0.5" width="14" height="14" rx="7" fill="white"/>
</clipPath>
</defs>
</svg>
