<svg width="47" height="48" viewBox="0 0 47 48" fill="none" xmlns="http://www.w3.org/2000/svg">
<path d="M30.326 12.7473L29.75 13.3027C29.3798 13.673 29.3695 14.2078 29.7089 14.5678L38.2045 23.4131C38.5542 23.7731 39.1096 23.7834 39.4696 23.444L40.0559 22.8783C40.4158 22.5286 40.4261 21.9629 40.0867 21.6132L31.6014 12.7781C31.2414 12.4182 30.6757 12.4079 30.326 12.7473ZM28.8758 12.4182C29.5238 11.801 29.9763 11.2456 30.9843 11.2662C31.5294 11.2765 32.0745 11.4925 32.4859 11.9142L40.9712 20.7492C41.7838 21.5926 41.7529 22.9605 40.9095 23.7731C40.2616 24.3902 39.809 24.9456 38.8011 24.925C38.3279 24.9147 37.8651 24.7502 37.4743 24.4313L34.3167 27.6918L34.3784 27.7535C36.168 29.5431 34.3784 32.0219 32.3831 31.9807C32.3831 33.4309 30.974 34.6857 29.4929 34.4903C29.4003 36.0845 27.6416 37.3085 26.0165 36.7736C25.6051 38.4707 23.3937 39.8078 21.9949 38.481C16.8832 33.4824 13.6022 29.9545 9.32352 24.6576C8.51098 25.1102 7.48246 25.0073 6.79335 24.3388C6.14537 23.7114 5.5694 23.2897 5.54883 22.2714C5.53855 21.7263 5.73396 21.1709 6.14538 20.7492L14.6307 11.9142C15.4432 11.0708 16.8009 11.0399 17.6546 11.8525C18.3025 12.4696 18.8785 12.9016 18.8888 13.9198C18.8991 14.2798 18.8168 14.6501 18.6317 14.9792L18.9917 15.226L22.0875 15.8843C22.9001 15.442 27.3433 15.7917 28.6289 15.2055C28.0015 14.3518 28.1044 13.1896 28.8758 12.4182ZM36.6 23.5468L29.4723 16.1311C28.1661 17.0671 22.9926 16.7997 22.7355 16.9437L19.5573 20.0807C18.9299 20.7081 20.267 22.9194 23.044 21.0989C25.0497 19.7927 26.7365 20.3481 28.5467 22.1069L33.4116 26.8278L36.6 23.5468ZM26.6439 27.1055C26.0679 26.5192 26.9524 25.645 27.5181 26.2313L31.6837 30.4174C32.6813 31.415 34.6355 29.8002 33.4733 28.638L27.6724 23.0017C26.2633 21.6338 25.1834 21.1812 23.7126 22.148C19.5573 24.853 16.9449 20.7801 18.7037 19.1653L20.9664 16.9334L18.6008 16.4294C18.3745 16.3883 18.0146 16.1003 17.7883 15.9357L10.2081 23.8245C12.152 26.221 13.9107 28.2883 15.8238 30.3968C17.85 32.6184 20.051 34.8812 22.8281 37.5965C23.62 38.3164 25.2657 36.6605 24.6588 35.8685C24.6177 35.8274 24.5868 35.776 24.5457 35.7348L20.8121 31.6516C20.267 31.0448 21.1824 30.2117 21.7378 30.8082L25.4508 34.8812C25.5331 34.9634 25.6051 35.0457 25.6668 35.128C26.1399 35.6217 26.685 35.7245 27.1376 35.6011C27.9501 35.3851 28.6392 34.4389 27.8781 33.6572L23.8772 29.3066C23.3218 28.6997 24.2371 27.8666 24.7925 28.4632L28.7626 32.783C30.11 34.12 31.7865 32.2893 30.7991 31.2916L26.6439 27.1055ZM17.346 13.3027L16.77 12.7473C16.4203 12.4079 15.8444 12.4182 15.505 12.7781L7.01962 21.6132C6.68021 21.9732 6.69049 22.5389 7.05048 22.8783L7.63674 23.444C8.01729 23.8039 8.54184 23.7834 8.96353 23.3514L17.2637 14.7118L17.3974 14.5678C17.7266 14.2181 17.7163 13.673 17.346 13.3027ZM26.6439 1.21752L28.8346 3.24372C29.5752 3.93283 30.47 4.22081 31.478 4.09739L34.4401 3.74769C36.816 3.46999 38.9862 5.05392 39.4593 7.38867L40.0353 10.3097C40.2307 11.2971 40.7861 12.0685 41.6604 12.5519L44.2625 14.0021C46.3504 15.1746 47.1733 17.7254 46.1756 19.8955L44.9311 22.6006C44.5094 23.516 44.5094 24.4622 44.9311 25.3879L46.1756 28.0929C47.1835 30.2528 46.3504 32.8138 44.2625 33.9863L41.6604 35.4468C40.7861 35.9405 40.2204 36.7016 40.0353 37.689L39.4593 40.61C38.9862 42.9551 36.816 44.5287 34.4401 44.251L31.478 43.9013C30.47 43.7779 29.5752 44.0762 28.8346 44.755L26.6439 46.7812C24.8851 48.4063 22.2007 48.4063 20.4522 46.7812L18.2614 44.755C17.5209 44.0659 16.626 43.7779 15.6181 43.9013L12.6662 44.251C10.2903 44.5287 8.12014 42.9551 7.64702 40.61L7.07105 37.689C6.87563 36.7016 6.32022 35.9303 5.44598 35.4468L2.84381 33.9863C0.755902 32.8241 -0.0669183 30.2631 0.930751 28.0929L2.18555 25.3879C2.60725 24.4725 2.60725 23.516 2.18555 22.6006L0.920466 19.9058C-0.0772034 17.7356 0.755902 15.1849 2.83352 14.0124L5.43569 12.5622C6.30994 12.0685 6.86534 11.3074 7.06076 10.32L7.63674 7.39896C8.09957 5.05392 10.28 3.46999 12.6559 3.75798L15.6078 4.10768C16.6158 4.2311 17.5106 3.93283 18.2511 3.254L20.4419 1.22781C22.2109 -0.40755 24.8851 -0.40755 26.6439 1.21752ZM27.9913 4.14882L25.8005 2.12262C24.5251 0.950103 22.5709 0.950103 21.2956 2.12262L19.1048 4.14882C18.0968 5.08478 16.8318 5.49619 15.4741 5.33162L12.5222 4.98192C10.7943 4.77622 9.21038 5.92817 8.88125 7.62523L8.30528 10.5462C8.03786 11.8936 7.25618 12.9633 6.05281 13.6421L3.45064 15.0923C1.93871 15.9357 1.33188 17.7973 2.06213 19.3813L3.31693 22.0863C3.8929 23.3411 3.8929 24.6576 3.31693 25.9124L2.05184 28.6174C1.32159 30.1911 1.92842 32.0527 3.44035 32.9064L6.04252 34.3566C7.2459 35.0252 8.02758 36.0948 8.29499 37.4525L8.87097 40.3735C9.21038 42.0706 10.784 43.2225 12.5119 43.0168L15.4638 42.6671C16.8318 42.5025 18.0866 42.9139 19.0945 43.8499L21.2853 45.8761C22.5606 47.0486 24.5148 47.0486 25.7902 45.8761L27.981 43.8499C28.9889 42.9139 30.2437 42.5025 31.6117 42.6671L34.5635 43.0168C36.2915 43.2225 37.8651 42.0808 38.2045 40.3735L38.7805 37.4525C39.0479 36.1051 39.8296 35.0354 41.033 34.3566L43.6351 32.9064C45.1471 32.063 45.7539 30.2014 45.0236 28.6174L43.7688 25.9124C43.1929 24.6576 43.1929 23.3411 43.7688 22.0863L45.0236 19.3813C45.7436 17.8076 45.1471 15.946 43.6351 15.0923L41.033 13.6421C39.8296 12.9633 39.0582 11.9039 38.7805 10.5462L38.2045 7.62523C37.8651 5.92817 36.2812 4.77622 34.5635 4.98192L31.6117 5.33162C30.254 5.49619 28.9992 5.08478 27.9913 4.14882Z" fill="white"/>
</svg>
