<svg width="49" height="48" viewBox="0 0 49 48" fill="none" xmlns="http://www.w3.org/2000/svg">
<path fill-rule="evenodd" clip-rule="evenodd" d="M39.7692 26.3919C39.7692 26.7948 40.0944 27.12 40.4973 27.12L40.4973 27.118C40.9002 27.118 41.2254 26.7928 41.2254 26.3899V3.63645C41.2254 1.63212 39.5933 0 37.5889 0H17.4534C17.0505 0 16.7253 0.325193 16.7253 0.728097C16.7253 1.131 17.0505 1.45619 17.4534 1.45619H37.5889C38.7936 1.45619 39.7712 2.43587 39.7712 3.6385L39.7692 26.3919ZM10.6811 20.3648C5.06671 20.3648 0.5 15.7977 0.5 10.1836C0.502046 4.57134 5.06911 0.00463867 10.6811 0.00463867C16.2955 0.00463867 20.8622 4.57171 20.8622 10.1857C20.8622 15.8001 16.2951 20.3668 10.6811 20.3668V20.3648ZM10.6811 1.45863C5.86863 1.45863 1.95399 5.37327 1.95399 10.1857C1.95399 14.9982 5.86863 18.9129 10.6811 18.9129C15.4936 18.9129 19.4082 14.9982 19.4082 10.1857C19.4082 5.37327 15.4936 1.45863 10.6811 1.45863ZM7.77271 5.82071C7.77271 7.42419 9.07758 8.72907 10.6811 8.72907C12.2845 8.72907 13.5894 7.42419 13.5894 5.82071C13.5894 4.21723 12.2845 2.91235 10.6811 2.91235C9.07758 2.91235 7.77271 4.21723 7.77271 5.82071ZM9.22691 5.82071C9.22691 5.019 9.87935 4.36656 10.6811 4.36656C11.4828 4.36656 12.1352 5.019 12.1352 5.82071C12.1352 6.62242 11.4828 7.27486 10.6811 7.27486C9.87935 7.27486 9.22691 6.62242 9.22691 5.82071ZM8.50054 16.728H12.861C14.0656 16.728 15.0433 15.7483 15.0433 14.5457V13.8176C15.0433 11.4124 13.0859 9.45508 10.6807 9.45508C8.27555 9.45508 6.31824 11.4123 6.31824 13.8176V14.5457C6.31824 15.7503 7.29792 16.728 8.50054 16.728ZM7.77239 13.8198C7.77239 12.2164 9.07727 10.9115 10.6807 10.9115H10.6827C12.2862 10.9115 13.5911 12.2164 13.5911 13.8198V14.5479C13.5911 14.9508 13.2639 15.276 12.863 15.276H8.50049C8.09758 15.276 7.77239 14.9488 7.77239 14.5479V13.8198ZM35.4088 33.454C35.4088 35.0575 36.7137 36.3624 38.3172 36.3624C39.9206 36.3624 41.2255 35.0575 41.2255 33.454C41.2255 31.8505 39.9206 30.5457 38.3172 30.5457C36.7137 30.5457 35.4088 31.8505 35.4088 33.454ZM36.863 33.454C36.863 32.6523 37.5155 31.9999 38.3172 31.9999C39.1189 31.9999 39.7713 32.6523 39.7713 33.454C39.7713 34.2557 39.1189 34.9082 38.3172 34.9082C37.5155 34.9082 36.863 34.2557 36.863 33.454ZM36.1347 44.3637C34.9321 44.3637 33.9524 43.3861 33.9524 42.1814V41.4533C33.9524 39.0481 35.9097 37.0908 38.3149 37.0908C40.7201 37.0908 42.6774 39.0481 42.6774 41.4533V42.1814C42.6774 43.384 41.6998 44.3637 40.4951 44.3637H36.1347ZM38.3169 38.5451C36.7135 38.5451 35.4086 39.85 35.4086 41.4535V42.1816C35.4086 42.5825 35.7338 42.9097 36.1367 42.9097H40.4992C40.9001 42.9097 41.2273 42.5845 41.2273 42.1816V41.4535C41.2273 39.85 39.9224 38.5451 38.3189 38.5451H38.3169ZM28.1361 37.8168C28.1361 43.4309 32.7028 47.998 38.3172 47.998C43.9312 47.998 48.4983 43.4312 48.4983 37.8168C48.4983 32.2028 43.9312 27.6357 38.3172 27.6357C32.7032 27.6357 28.1361 32.2024 28.1361 37.8168ZM29.5901 37.8189C29.5901 33.0065 33.5047 29.0918 38.3172 29.0918C43.1297 29.0918 47.0443 33.0065 47.0443 37.8189C47.0443 42.6314 43.1297 46.5461 38.3172 46.5461C33.5047 46.5461 29.5901 42.6314 29.5901 37.8189ZM31.5447 47.9979H11.4092C9.40482 47.9979 7.77271 46.3657 7.77271 44.3614V21.608C7.77271 21.2051 8.0979 20.8799 8.5008 20.8799C8.90372 20.8799 9.2289 21.2051 9.2289 21.608V44.3614C9.2289 45.564 10.2065 46.5437 11.4112 46.5437H31.5467C31.9496 46.5437 32.2748 46.8689 32.2748 47.2718C32.2748 47.6747 31.9496 47.9999 31.5467 47.9999L31.5447 47.9979ZM30.3151 8.72918H23.042C22.639 8.72918 22.3139 8.40398 22.3139 8.00108C22.3139 7.59817 22.6391 7.27298 23.042 7.27298H30.3151C30.7159 7.27298 31.0432 6.94779 31.0432 6.54489C31.0432 6.14402 30.718 5.81679 30.3151 5.81679H21.588C21.185 5.81679 20.8599 5.4916 20.8599 5.08869C20.8599 4.68578 21.1851 4.3606 21.588 4.3606H30.3151C31.5177 4.3606 32.4974 5.33823 32.4974 6.5429C32.4974 7.74552 31.5197 8.7252 30.3151 8.7252V8.72918ZM22.3166 13.0936H36.1345C36.5374 13.0936 36.8626 12.7685 36.8626 12.3655C36.8626 11.9626 36.5374 11.6375 36.1345 11.6375H22.3166C21.9137 11.6375 21.5885 11.9626 21.5885 12.3655C21.5885 12.7685 21.9137 13.0936 22.3166 13.0936ZM36.1349 16.0021H21.5913C21.1883 16.0021 20.8632 15.6769 20.8632 15.274C20.8632 14.8711 21.1884 14.5459 21.5913 14.5459H36.1349C36.5378 14.5459 36.863 14.8711 36.863 15.274C36.863 15.6769 36.5378 16.0021 36.1349 16.0021ZM20.1363 18.9103H36.1344C36.5373 18.9103 36.8625 18.5851 36.8625 18.1822C36.8625 17.7793 36.5373 17.4541 36.1344 17.4541H20.1363C19.7334 17.4541 19.4082 17.7793 19.4082 18.1822C19.4082 18.5851 19.7334 18.9103 20.1363 18.9103ZM36.1347 21.8187H16.5003C16.0974 21.8187 15.7722 21.4935 15.7722 21.0906C15.7722 20.6877 16.0974 20.3625 16.5003 20.3625H36.1347C36.5377 20.3625 36.8628 20.6877 36.8628 21.0906C36.8628 21.4936 36.5376 21.8187 36.1347 21.8187ZM12.8641 24.7294H36.1348C36.5377 24.7294 36.8629 24.4042 36.8629 24.0013C36.8629 23.5984 36.5377 23.2732 36.1348 23.2732H12.8641C12.4612 23.2732 12.136 23.5984 12.136 24.0013C12.136 24.4042 12.4612 24.7294 12.8641 24.7294ZM26.6815 27.6373H12.8636C12.4607 27.6373 12.1355 27.3122 12.1355 26.9093C12.1355 26.5063 12.4607 26.1812 12.8636 26.1812H26.6815C27.0844 26.1812 27.4096 26.5063 27.4096 26.9093C27.4096 27.3122 27.0844 27.6373 26.6815 27.6373ZM11.1536 40.68C11.2375 40.7127 11.3234 40.727 11.4093 40.727L11.4094 40.7249C11.7039 40.7249 11.982 40.5449 12.0904 40.2524L13.9844 35.2027C14.0498 35.0268 14.2216 34.9082 14.4098 34.9082C14.5897 34.9082 14.7022 35.0064 14.7534 35.0657C14.8045 35.125 14.8863 35.2498 14.8597 35.4277L14.5325 37.7225C14.4527 38.2972 14.6225 38.876 15.0029 39.3137C15.3833 39.7493 15.9314 40.0009 16.5102 40.0009C17.2076 40.0009 17.8642 39.6286 18.2221 39.0314L19.6783 36.6058C19.7662 36.4585 19.9299 36.3665 20.1017 36.3665C20.3062 36.3665 20.4289 36.481 20.4841 36.5485C20.5393 36.616 20.6252 36.7592 20.5864 36.9576L20.3634 38.0681C20.2694 38.5447 20.39 39.0335 20.6989 39.4098C21.2756 40.1154 22.4455 40.1727 23.0918 39.5284L23.4334 39.1869C23.8383 38.7799 24.4007 38.5467 24.9755 38.5467C25.3784 38.5467 25.7036 38.2215 25.7036 37.8186C25.7036 37.4157 25.3784 37.0905 24.9755 37.0905C24.004 37.0905 23.0918 37.4689 22.4046 38.1561L22.063 38.4977C21.9853 38.5733 21.8585 38.5304 21.8217 38.4854C21.7992 38.4588 21.7746 38.4138 21.7869 38.3504L22.0098 37.2398C22.1244 36.6651 21.9771 36.0761 21.6049 35.6221C21.2347 35.168 20.6845 34.9082 20.0996 34.9082C19.4185 34.9082 18.7783 35.2703 18.4286 35.8532L16.9724 38.2809C16.8763 38.4424 16.6983 38.5427 16.5081 38.5427C16.2934 38.5427 16.1604 38.4261 16.0991 38.3565C16.0398 38.287 15.9416 38.1377 15.9723 37.925L16.2995 35.6323C16.3772 35.0842 16.2136 34.5319 15.8516 34.1127C15.4896 33.6934 14.964 33.4541 14.4097 33.4541C13.6182 33.4541 12.9003 33.9531 12.6221 34.6935L10.7282 39.7432C10.5871 40.1196 10.7773 40.5389 11.1536 40.68Z" fill="white"/>
</svg>
