<svg width="43" height="48" viewBox="0 0 43 48" fill="none" xmlns="http://www.w3.org/2000/svg">
<path fill-rule="evenodd" clip-rule="evenodd" d="M35.0088 29.5374C36.8269 27.6227 39.672 27.1039 42.0497 28.2509C42.4485 28.4567 42.7247 28.8445 42.7847 29.2905C42.8469 29.7343 42.6882 30.1824 42.358 30.489L30.5832 41.8522C28.6985 43.6553 26.1343 44.5729 23.5336 44.3736L13.4569 43.5846C12.4939 43.4251 11.436 44.2949 10.5549 45.0193C10.2511 45.269 9.96841 45.5015 9.71779 45.6685C9.63204 45.9773 9.48839 46.2689 9.29757 46.5261C8.88378 47.0771 8.2663 47.4373 7.58236 47.5295L4.49499 47.9755C3.81533 48.0698 3.1271 47.8897 2.58038 47.4738C2.03366 47.06 1.67775 46.4425 1.5877 45.7629L0.0268372 35.043C-0.0717885 34.3676 0.104019 33.6815 0.511382 33.1326C0.920891 32.5859 1.52975 32.2257 2.20513 32.1271L5.2925 31.6812C5.96146 31.574 6.6454 31.7348 7.19641 32.1271C7.54159 32.3801 7.81388 32.721 7.9854 33.1134C8.93949 32.483 9.97076 31.9813 11.0556 31.6211V19.349L6.7162 22.9424C6.34956 23.2082 5.8393 23.1439 5.552 22.7945C5.26256 22.445 5.29687 21.9304 5.62704 21.6217L15.2322 13.6719C14.3982 12.2676 13.9629 10.6639 13.9715 9.03229C13.9844 6.63742 14.9449 4.34333 16.6408 2.65172C18.3369 0.962257 20.6331 0.0081735 23.028 0.00174134C29.9061 -0.135475 34.4428 7.86589 30.8323 13.6718L40.4374 21.5788C40.7976 21.8811 40.847 22.4171 40.5489 22.7794C40.2488 23.1418 39.7128 23.1953 39.3483 22.8995L35.0088 19.3147V29.5374ZM30.3863 9.02304C30.3863 4.96242 27.0972 1.66923 23.0364 1.66494C21.0854 1.66708 19.214 2.44522 17.8354 3.82595C16.4589 5.20668 15.685 7.08056 15.6871 9.03162C16.0642 18.817 29.9746 18.817 30.3863 9.02304ZM16.1756 15.0093L12.7452 17.8823L12.7881 31.2093C14.589 30.9263 16.4329 31.1149 18.1396 31.7581C18.4118 31.8653 18.7077 31.8996 18.9972 31.861L26.5441 30.6518C28.3107 30.3967 30.0817 31.0763 31.2266 32.4442L33.1904 30.9005V17.8737L29.76 15.0093C26.4668 19.0572 19.4859 19.0572 16.1756 15.0093ZM7.34232 45.7885C7.56742 45.7606 7.76896 45.6406 7.89974 45.454C8.03696 45.2718 8.09486 45.0448 8.0627 44.8197L6.51046 34.0652C6.44399 33.5957 6.01092 33.2698 5.54138 33.3363L2.45401 33.7822C1.98448 33.8487 1.65859 34.2817 1.72506 34.7513L3.2773 45.5398C3.34805 46.005 3.78113 46.3266 4.24638 46.2602L7.34232 45.7885ZM23.6105 42.6154C25.7248 42.7783 27.8087 42.0322 29.3396 40.5657L40.8138 29.6571C39.5038 29.1768 38.0394 29.4105 36.946 30.2746L32.1949 34.0051C32.244 34.1088 32.2827 34.2402 32.3198 34.3663L32.3198 34.3663L32.3198 34.3664C32.341 34.4384 32.3617 34.5088 32.3835 34.5711C32.4865 34.9421 32.4264 35.3408 32.2227 35.6667C32.0169 35.9926 31.6824 36.2177 31.303 36.2863L22.0837 37.8043C21.6098 37.8815 21.1617 37.562 21.0845 37.0882C21.0074 36.6144 21.3268 36.1663 21.8007 36.0891L30.6083 34.6654C30.0744 33.0874 28.4815 32.1205 26.8349 32.3756L19.2451 33.5848C18.6662 33.6727 18.0766 33.6063 17.5299 33.3962C14.4019 32.2705 10.9135 32.8666 8.33642 34.9656L9.57137 43.5416L10.6777 42.684C11.4924 42.0494 12.513 41.7449 13.5421 41.8264L23.6105 42.6154ZM20.4125 12.8657C20.0781 13.198 19.5377 13.198 19.2033 12.8657C19.0403 12.7049 18.9504 12.4861 18.9504 12.2566C18.9504 12.0272 19.0405 11.8085 19.2034 11.6477L25.6526 5.19855C25.8134 5.0356 26.0321 4.94556 26.2615 4.94556C26.4909 4.94556 26.7096 5.0356 26.8704 5.19855C27.2028 5.53298 27.2028 6.07329 26.8704 6.40776L20.4125 12.8657ZM22.9675 11.9567C22.9675 13.4296 24.1618 14.6239 25.6347 14.6239C27.1076 14.6239 28.3018 13.4296 28.3018 11.9567C28.3018 10.4838 27.1076 9.28955 25.6347 9.28955C24.1618 9.28955 22.9675 10.4838 22.9675 11.9567ZM26.5866 11.9567C26.5866 12.482 26.16 12.9087 25.6347 12.9087C25.1094 12.9087 24.6827 12.482 24.6827 11.9567C24.6827 11.4314 25.1094 11.0048 25.6347 11.0048C26.16 11.0048 26.5866 11.4314 26.5866 11.9567ZM23.1052 6.12492C23.1052 7.59786 21.911 8.79208 20.438 8.79208C18.9651 8.79208 17.7709 7.59786 17.7709 6.12492C17.7709 4.65199 18.9651 3.45776 20.438 3.45776C21.911 3.45776 23.1052 4.65199 23.1052 6.12492ZM21.39 6.12492C21.39 5.59963 20.9633 5.17297 20.438 5.17297C19.9127 5.17297 19.4861 5.59963 19.4861 6.12492C19.4861 6.65022 19.9127 7.07688 20.438 7.07688C20.9633 7.07688 21.39 6.65022 21.39 6.12492Z" fill="white"/>
</svg>
