<svg width="284" height="240" viewBox="0 0 284 240" fill="none" xmlns="http://www.w3.org/2000/svg">
<g clip-path="url(#clip0_175_215)">
<rect width="284" height="240" fill="#B5D1CF"/>
<g clip-path="url(#clip1_175_215)">
<path d="M325 -1H-41V241H325V-1Z" fill="#C6D8E1"/>
<path d="M320.699 86.8506C316.124 86.12 315.118 87.8551 312.922 89.4989C312.007 87.3985 310.543 83.837 305.876 84.9329C307.249 80.0929 303.497 77.2619 298.831 77.2619C298.282 77.2619 297.733 77.3532 297.184 77.4446C295.537 73.7004 291.694 71.1434 287.393 71.1434C281.446 71.1434 276.596 75.9834 276.596 81.9193C276.596 82.2846 276.596 82.7412 276.688 83.1065C275.59 82.3759 274.4 81.9193 273.119 81.9193C269.185 81.9193 265.891 85.7548 265.891 90.5034C265.891 91.5993 266.074 92.6951 266.44 93.6997C265.982 93.6083 265.525 93.6083 264.976 93.6083C258.662 93.6083 253.539 98.631 253.355 104.932C252.532 104.749 251.617 104.567 250.702 104.567C244.846 104.567 239.996 109.316 239.264 115.343C238.166 114.977 236.977 114.795 235.696 114.795C230.297 114.795 225.814 118.265 224.624 122.922C222.428 121.096 219.592 120 216.481 120C210.991 120 206.324 123.379 204.769 128.036C203.396 126.758 201.292 125.936 199.004 125.936C197.083 125.936 195.253 126.484 193.972 127.488H193.881C192.691 122.466 188.208 118.813 182.809 118.813C180.613 118.813 178.508 119.452 176.77 120.548C175.489 119.909 174.025 119.452 172.378 119.452C172.103 119.452 171.92 119.452 171.646 119.452C170.273 115.708 166.888 113.06 162.953 113.06C160.117 113.06 157.555 114.429 155.816 116.621C153.803 112.238 149.594 109.133 144.653 109.133C139.529 109.133 135.046 112.512 133.216 117.169C131.294 116.347 129.19 115.799 126.902 115.799C120.68 115.799 115.465 119.361 113.635 124.292C113.452 124.292 113.177 124.292 112.994 124.292C108.236 124.292 104.21 127.214 102.563 131.415C100.093 128.858 96.1585 127.306 91.7665 127.306C88.747 127.306 85.9105 128.128 83.623 129.406C81.7015 123.47 76.303 118.265 67.0615 120.365C64.591 118.265 61.297 116.986 57.82 116.986C55.5325 116.986 53.428 117.534 51.5065 118.448C49.4935 113.06 44.278 109.224 38.1475 109.224C30.2785 109.224 23.8735 115.617 23.8735 123.47C23.8735 124.292 23.965 125.023 24.0565 125.753C21.6775 121.187 16.9195 118.082 11.4295 118.082C3.83499 118.082 -2.387 124.018 -2.84451 131.415C-5.498 128.493 -9.24951 126.575 -13.55 126.575C-20.321 126.575 -25.9025 131.232 -27.458 137.534C-30.1115 134.337 -36.425 132.054 -40.9085 132.054V240.909H325.091V92.1472C325 92.1472 325 87.5812 320.699 86.8506Z" fill="#D9E3E8"/>
<path d="M325 187.303C325 187.303 301.851 169.77 294.256 163.834C281.995 154.154 273.12 152.054 265.251 157.441C257.382 162.829 243.382 175.432 243.382 175.432C243.382 175.432 189.489 117.078 187.11 114.795C185.737 113.516 183.816 113.242 182.077 113.973C177.319 116.164 165.973 122.831 159.66 125.571C153.346 128.219 122.145 79.2709 114.276 77.1705C106.407 75.0701 37.141 153.241 21.4945 145.752C5.84801 138.264 -3.11899 143.652 -10.8965 148.949C-18.7655 154.337 -20.9615 154.337 -25.445 156.437C-29.9285 158.537 -41.0915 151.049 -41.0915 151.049V241C-41.0915 241 324.909 241.183 324.909 241V187.303H325Z" fill="#8EA8BB"/>
<path d="M264.061 162.464C252.074 153.971 227.461 166.665 213.645 172.236C192.05 181.002 127.635 122.557 115.557 117.717C115.557 117.717 111.714 121.096 106.773 124.657C103.57 124.292 99.0865 119.452 97.714 120.365C93.505 123.196 81.427 134.429 71.8195 144.657C62.212 154.976 61.114 144.657 57.3625 144.109C55.075 143.743 7.861 182.92 3.652 183.468C-20.5955 186.482 -41 179.359 -41 179.359V241L325 240.909V192.235C325 192.235 274.492 169.861 264.061 162.464Z" fill="#7E96A6"/>
<path d="M-41 240.909V187.395C-41 187.395 -33.497 189.039 -30.6605 192.235C-27.824 195.522 -6.779 188.399 -6.779 196.527C-6.779 204.654 -6.3215 200.362 -6.3215 210.042C-6.3215 219.814 14.7235 206.207 28.54 193.239C42.3565 180.272 60.4735 148.309 61.48 161.277C62.395 174.245 47.6635 197.075 39.52 212.782C31.3765 228.58 6.3055 241 6.3055 241L-41 240.909Z" fill="#788F9E"/>
<path d="M50.5 241C50.5 241 111.531 126.758 112.995 134.337C114.459 141.917 106.772 161.46 114.916 158.172C123.06 154.885 128.275 143.561 132.118 149.497C135.961 155.432 146.941 184.746 152.157 180.363C157.372 176.071 171.738 168.4 172.653 174.427C173.568 180.363 171.738 179.267 167.437 192.874C163.137 206.389 142 241 142 241H132.85C132.85 241 138.34 218.352 140.719 209.129C143.098 199.906 137.334 191.778 129.739 201.549C122.145 211.321 108.694 221.64 107.779 217.805C106.864 213.969 102.564 190.134 90.577 204.837C78.682 219.448 59.65 241.091 59.65 241.091H50.5V241Z" fill="#788F9E"/>
<path d="M183.175 241C183.175 241 201.292 191.048 213.736 182.372C226.18 173.697 262.871 156.894 256.649 169.952C250.427 182.92 246.584 201.367 238.075 215.43C229.474 229.494 220.873 239.265 225.173 227.85C229.474 216.435 231.029 206.572 228.559 206.755C207.239 208.216 196.9 241 196.9 241H183.175Z" fill="#788F9E"/>
</g>
</g>
<defs>
<clipPath id="clip0_175_215">
<rect width="284" height="240" fill="white"/>
</clipPath>
<clipPath id="clip1_175_215">
<rect width="366" height="242" fill="white" transform="translate(-41 -1)"/>
</clipPath>
</defs>
</svg>
