<svg width="243" height="64" viewBox="0 0 243 64" fill="none" xmlns="http://www.w3.org/2000/svg">
<g clip-path="url(#clip0_175_147)">
<path d="M20.4224 36.1946L21.7168 30.2021H8.19773L13.9505 4.21862H7.0951L0.0479126 36.1946H20.4224ZM36.4584 12.4643C28.5962 12.4643 24.2337 20.1827 24.2337 27.1819C24.2337 33.3182 27.8292 36.7699 33.0547 36.7699C35.8352 36.7699 38.0404 35.6194 40.006 33.3182L39.3348 36.1946H45.4711L50.6007 13.0396H44.4644L43.8412 16.1078C42.3071 13.8066 39.5745 12.4643 36.4584 12.4643ZM37.4172 17.8815C39.8621 17.8815 41.8277 18.9842 42.8344 20.5662L41.0606 28.5722C39.8142 30.1542 37.8966 31.3527 35.7393 31.3527C32.815 31.3527 30.6097 29.2433 30.6097 25.9355C30.6097 21.6688 33.4382 17.8815 37.4172 17.8815ZM39.8142 10.307C42.7865 10.307 45.3273 7.76618 45.3273 4.7939C45.3273 2.06131 43.4576 0.19165 40.7251 0.19165C37.7528 0.19165 35.212 2.73247 35.212 5.70476C35.212 8.43734 37.0816 10.307 39.8142 10.307ZM40.0539 7.47854C38.8554 7.47854 38.0404 6.61562 38.0404 5.41712C38.0404 4.12274 39.191 3.02011 40.4854 3.02011C41.6839 3.02011 42.4989 3.88304 42.4989 5.08154C42.4989 6.37592 41.3483 7.47854 40.0539 7.47854ZM71.8382 36.1946L75.3378 20.2785C75.4337 19.7991 75.5775 18.7924 75.5775 18.3609C75.5775 14.7654 72.797 12.4643 68.3385 12.4643C64.9348 12.4643 62.4419 14.286 60.6202 16.0119L61.2914 13.0396H55.203L50.0734 36.1946H56.1618L59.6135 20.5662C60.9558 19.2718 62.9693 17.8815 65.0307 17.8815C67.2839 17.8815 69.0097 18.6965 69.0097 20.8059C69.0097 21.2373 68.9138 21.7167 68.8179 22.1482L65.7018 36.1946H71.8382ZM89.2884 36.7699C92.1648 36.7699 95.2329 35.907 97.4861 34.3729L95.6164 30.1063C94.1782 31.2089 91.8292 31.7842 89.7678 31.7842C85.4532 31.7842 83.3917 29.1475 83.3917 27.1819V26.6066H100.602C100.794 25.8875 101.082 24.1617 101.082 22.7714C101.082 16.2995 96.6232 12.4643 90.6786 12.4643C82.9603 12.4643 77.3033 18.8403 77.3033 26.3669C77.3033 32.8388 82.0015 36.7699 89.2884 36.7699ZM95.5685 22.3879H84.0629C84.5423 19.8471 86.9872 17.4501 90.2951 17.4501C93.9386 17.4501 95.6644 19.5594 95.6644 21.9085C95.6644 22.0044 95.6644 22.292 95.6164 22.3879H95.5685ZM111.197 45.5909C116.183 45.5909 121.84 43.3857 123.805 34.6606L128.599 13.0396H122.511L121.792 16.1078C120.114 13.8546 117.142 12.4643 114.313 12.4643C106.786 12.4643 102.328 19.5594 102.328 26.6066C102.328 33.2703 106.403 36.0029 111.053 36.0029C113.882 36.0029 116.422 34.6606 118.148 32.4553L117.669 34.6606C116.71 39.3587 113.93 40.6051 111.101 40.6051C108.081 40.6051 105.061 39.5505 103.575 37.537L99.979 41.5639C102.807 44.5362 106.643 45.5909 111.197 45.5909ZM113.93 30.5857C110.766 30.5857 108.656 28.5242 108.656 25.4081C108.656 21.2373 111.341 17.8815 115.128 17.8815C117.573 17.8815 119.682 18.9362 120.785 20.71L119.155 27.901C117.909 29.4351 115.943 30.5857 113.93 30.5857ZM133.154 13.0396L129.654 28.9557C129.51 29.4351 129.366 30.4418 129.366 30.8733C129.366 34.4688 132.195 36.7699 136.653 36.7699C140.057 36.7699 142.55 34.9482 144.372 33.2224L143.7 36.1946H149.789L154.918 13.0396H148.83L145.378 28.6201C144.036 29.9624 142.022 31.3527 139.913 31.3527C137.708 31.3527 135.982 30.4898 135.982 28.3804C135.982 27.949 136.078 27.4696 136.174 27.0381L139.242 13.0396H133.154ZM163.452 10.5467C165.321 10.5467 167.574 9.06056 167.574 6.42386C167.574 4.69802 166.184 3.30776 164.267 3.30776C162.445 3.30776 160.192 4.7939 160.192 7.4306C160.192 9.15644 161.582 10.5467 163.452 10.5467ZM160.479 36.1946L165.609 13.0396H159.521L154.391 36.1946H160.479ZM178.121 12.4643C170.259 12.4643 165.897 20.1827 165.897 27.1819C165.897 33.3182 169.492 36.7699 174.718 36.7699C177.498 36.7699 179.703 35.6194 181.669 33.3182L180.998 36.1946H187.134L194.229 4.21862H188.093L185.504 16.1078C183.97 13.8066 181.237 12.4643 178.121 12.4643ZM179.08 17.8815C181.525 17.8815 183.491 18.9842 184.497 20.5662L182.724 28.5722C181.477 30.1542 179.56 31.3527 177.402 31.3527C174.478 31.3527 172.273 29.2433 172.273 25.9355C172.273 21.6688 175.101 17.8815 179.08 17.8815ZM204.632 36.7699C207.509 36.7699 210.577 35.907 212.83 34.3729L210.96 30.1063C209.522 31.2089 207.173 31.7842 205.112 31.7842C200.797 31.7842 198.736 29.1475 198.736 27.1819V26.6066H215.946C216.138 25.8875 216.425 24.1617 216.425 22.7714C216.425 16.2995 211.967 12.4643 206.022 12.4643C198.304 12.4643 192.647 18.8403 192.647 26.3669C192.647 32.8388 197.345 36.7699 204.632 36.7699ZM210.912 22.3879H199.407C199.886 19.8471 202.331 17.4501 205.639 17.4501C209.282 17.4501 211.008 19.5594 211.008 21.9085C211.008 22.0044 211.008 22.292 210.96 22.3879H210.912ZM238.55 36.1946L242.049 20.2785C242.145 19.7991 242.289 18.7924 242.289 18.3609C242.289 14.7654 239.509 12.4643 235.05 12.4643C231.646 12.4643 229.154 14.286 227.332 16.0119L228.003 13.0396H221.915L216.785 36.1946H222.873L226.325 20.5662C227.667 19.2718 229.681 17.8815 231.742 17.8815C233.995 17.8815 235.721 18.6965 235.721 20.8059C235.721 21.2373 235.625 21.7167 235.53 22.1482L232.413 36.1946H238.55Z" fill="#1780CF"/>
<path d="M141.136 63.7842L141.208 63.2089H141.615C142.694 63.2089 142.502 62.6336 142.382 62.2261L141.351 57.9115L138.211 62.2261C137.804 62.9692 137.804 63.1849 138.547 63.1849H138.93L138.858 63.7602H135.479L135.622 63.1849H136.39C136.845 63.1849 137.228 62.6096 137.54 62.2261L141.136 57.0486L138.954 48.3954C138.882 47.9639 138.643 47.3886 137.636 47.3886H137.228L137.3 46.7415H145.282L145.211 47.3886H144.515C143.868 47.3886 143.94 47.9639 144.036 48.3954L144.875 51.7272L147.368 48.1317C147.608 47.9639 147.751 47.3886 147.104 47.3886H146.793L146.864 46.7415H150.292L150.124 47.3886H149.525C148.71 47.3886 148.566 47.8201 148.279 48.2276L145.211 52.5662L147.56 62.2501C147.727 62.7534 147.967 63.2089 148.71 63.2089H149.046L148.95 63.7842H141.136ZM191.185 62.4898L191.688 59.11H192.264C192.431 62.4898 193.606 63.113 194.517 63.1849C195.524 63.2808 196.506 62.8493 197.106 62.0583C197.753 61.1474 197.945 60.1886 197.489 59.4456L193.246 52.2546C192.671 51.3197 192.479 48.7549 194.325 47.6763C195.5 47.0291 196.578 46.4778 198.256 46.4778C200.677 46.4778 201.66 46.8613 202.834 48.3474L202.331 51.5594H201.756L201.66 49.6658C201.396 48.0358 200.342 46.8613 198.999 46.9572C198.424 47.0291 197.921 47.3407 197.489 47.892C197.249 48.3235 196.914 48.9707 197.585 50.0973L201.228 56.0658C201.828 57.0006 201.876 57.6958 201.876 58.5107C201.876 60.9557 198.879 63.904 194.972 63.9519C193.175 63.9519 192.408 63.4486 191.185 62.4898ZM150.268 62.6576L152.306 48.2276C152.354 47.8441 151.539 47.3886 151.275 47.3886H150.676L150.748 46.7415H158.754C161.342 46.9092 164.027 47.3886 163.955 51.3437C163.835 53.7886 161.702 55.3227 160.695 55.8261C159.904 56.2336 158.754 56.5692 157.771 56.5692H156.452L155.614 62.322C155.518 62.8253 155.781 63.2328 156.452 63.2328H157.291L157.124 63.8081H149.046L149.118 63.2328C149.837 63.137 150.268 63.0411 150.268 62.6576ZM157.747 55.898C158.154 55.898 158.586 55.7302 158.682 55.1789C158.754 54.8433 159.401 49.7137 159.688 48.3954C159.688 47.6523 159.281 47.3886 158.61 47.3886H157.675L156.524 55.898H157.747ZM232.701 63.7842L228.77 49.8336L226.948 62.4898C226.876 62.9931 227.044 63.2089 227.452 63.2089H228.387L228.219 63.7842H224.647V63.2089H225.486C226.133 63.2089 226.133 62.7055 226.133 62.4898L228.195 48.2036C228.267 47.6283 228.027 47.3647 226.469 47.3647L226.541 46.7175H232.869L236.033 57.9594L237.447 48.1797C237.447 47.6044 237.184 47.3407 236.033 47.3407L236.105 46.6935H239.676L239.605 47.3407H239.101C238.526 47.3407 238.262 47.6044 238.166 48.1797L235.865 63.7602L232.701 63.7842ZM130.061 54.9871H132.482C133.178 54.9871 133.825 54.8194 133.873 53.8606L134.04 52.8538H134.616L133.849 57.7677H133.369L133.537 56.689C133.633 56.0418 133.154 55.5624 132.578 55.5624H130.061L128.983 63.2089H132.578C133.297 63.0411 134.4 62.3699 134.999 59.134H135.575L134.927 63.7842H122.008L122.175 63.2089H122.942C123.59 63.2089 123.901 62.8014 123.901 62.6336L126.011 47.94C126.011 47.3647 125.675 47.3647 124.285 47.3647L124.357 46.7175H136.869L136.366 50.1212H135.79V49.6898C135.79 48.683 135.718 47.3886 134.736 47.3886H131.188C131.164 47.3886 130.061 54.9871 130.061 54.9871ZM219.326 54.9871H221.627C222.394 54.9871 222.969 54.8194 223.137 53.8606L223.305 52.8538H223.88L223.161 57.7677H222.586L222.754 56.689C222.849 56.0418 222.418 55.5624 221.819 55.5624H219.23L218.151 63.2089H221.723C222.562 63.0411 223.545 62.3699 224.144 59.134H224.719L224 63.7842H211.248L211.32 63.2089H212.087C212.662 63.2089 213.046 62.8014 213.166 62.6336L215.155 47.94C215.155 47.3647 214.819 47.3647 213.429 47.3647L213.477 46.7175H225.894L225.438 50.1212H224.863V49.6898C224.863 48.683 224.695 47.3886 223.856 47.3886H220.309L219.326 54.9871ZM201.948 62.4898L202.451 59.11H203.05C203.098 62.4898 204.297 63.113 205.184 63.1849C206.262 63.2808 207.293 62.8493 207.868 62.0583C208.443 61.1474 208.635 60.1886 208.252 59.4456L203.937 52.2546C203.434 51.3197 203.242 48.7549 205.016 47.6763C206.19 47.0291 207.269 46.4778 209.019 46.4778C211.392 46.4778 212.47 46.8613 213.525 48.3474L213.046 51.5594H212.446L212.375 49.6658C212.111 48.0358 211.128 46.8613 209.786 46.9572C209.091 47.0291 208.635 47.3407 208.276 47.892C208.06 48.3235 207.628 48.9707 208.276 50.0973L212.063 56.0658C212.638 57.0006 212.71 57.6958 212.71 58.5107C212.71 60.9557 209.618 64.0478 205.711 63.9519C203.865 63.9519 203.098 63.4486 201.948 62.4898ZM170.882 54.9871C171.218 54.9871 171.649 54.9152 171.721 54.2441L172.56 48.2036C172.632 47.3647 171.625 47.3647 170.643 47.3647L169.564 54.9871H170.882ZM173.735 63.7842C173.231 63.7842 172.656 63.4486 172.656 63.2089C172.584 62.9692 171.338 56.7849 171.242 56.5692C171.074 56.2336 170.906 55.7302 170.595 55.7302L169.444 55.5624L168.605 62.2501C168.437 62.8973 168.773 63.2089 169.54 63.2089H170.115L169.948 63.7842H161.486L161.558 63.2089H162.397C163.092 63.2089 163.332 62.8014 163.404 62.5617L165.321 48.2036C165.393 47.8201 165.249 47.3647 164.506 47.3647H163.811V46.7415H171.889C174.646 46.7415 177.714 47.3886 177.474 50.4808C177.091 53.5969 173.999 54.7235 173.663 54.8194C173.327 54.8913 171.602 55.4665 171.314 55.4665C173.999 56.0418 175.724 56.1137 176.036 57.2643C176.491 58.5347 177.067 61.7467 177.067 62.0823C177.139 62.2501 177.57 63.2089 178.145 63.2089H178.721L178.553 63.7842H173.735ZM178.361 63.2328C179.056 63.3047 179.44 62.8014 179.44 62.6336L181.453 47.94C181.453 47.3647 181.237 47.3647 179.727 47.3647L179.895 46.7175H192.312L191.832 50.1212H191.257V49.6898C191.257 48.683 191.161 47.3886 190.226 47.3886H186.655L185.648 54.9871H187.997C188.764 54.9871 189.339 54.8194 189.483 53.8606L189.651 52.8538H190.226L189.507 57.7677H188.98L189.076 56.689C189.148 56.0418 188.764 55.5624 188.141 55.5624H185.648L184.545 63.2089H188.141C188.86 63.0411 189.891 62.3699 190.49 59.134H191.065L190.298 63.7842H178.217L178.361 63.2328Z" fill="#E30613"/>
</g>
<defs>
<clipPath id="clip0_175_147">
<rect width="242.337" height="64" fill="white"/>
</clipPath>
</defs>
</svg>
