<svg width="159" height="34" viewBox="0 0 159 34" fill="none" xmlns="http://www.w3.org/2000/svg">
<g clip-path="url(#clip0_175_161)">
<mask id="mask0_175_161" style="mask-type:luminance" maskUnits="userSpaceOnUse" x="0" y="0" width="159" height="34">
<path d="M158.953 0.38501H0.806641V33.385H158.953V0.38501Z" fill="white"/>
</mask>
<g mask="url(#mask0_175_161)">
<path d="M28.4685 0.761963H10.0121L1.4624 15.4638H4.33491L11.422 3.21981L18.1019 14.7023H36.6186L28.4685 0.761963ZM14.2945 3.21981H27.0059L32.2759 12.2445H19.5042L14.2869 3.21981H14.2945Z" fill="black" stroke="black" stroke-width="0.753941" stroke-miterlimit="10"/>
<path d="M9.69578 33.008H28.1522L36.7095 18.3062H33.8369L26.7499 30.5502L20.07 19.0676H1.55322L9.69578 33.008ZM23.8774 30.5502H11.1056L5.8356 21.5255H18.6074L23.8774 30.5502Z" fill="black" stroke="black" stroke-width="0.753941" stroke-miterlimit="10"/>
<path d="M66.1357 22.694C66.1357 26.6748 63.135 29.9921 56.8472 29.9921C50.5593 29.9921 46.0884 26.8105 45.8472 21.1559H50.0014C50.2125 24.3376 52.3763 26.4335 56.8472 26.4335C60.549 26.4335 61.9815 24.7899 61.9815 22.8674C61.9815 19.8969 59.8478 19.3389 54.9246 18.1176C51.0117 17.1374 46.7896 15.6371 46.7896 10.8873C46.7896 6.4541 50.2125 3.97363 55.6635 3.97363C61.1145 3.97363 65.1254 6.83861 65.4798 11.9729H61.3256C60.941 9.07782 59.1241 7.53978 55.671 7.53978C52.7005 7.53978 50.9212 8.65561 50.9212 10.5103C50.9212 13.232 53.2584 13.7221 56.7567 14.5967C62.1021 15.9613 66.1508 17.1073 66.1508 22.7015L66.1357 22.694Z" fill="black"/>
<path d="M73.1847 14.6268V24.2999C73.1847 26.328 74.1648 26.5692 76.5397 26.4335V29.4342C75.8084 29.6076 75.0017 29.7132 74.0215 29.7132C71.0887 29.7132 69.4828 28.3862 69.4828 24.6165V14.6268H67.1079V11.6261H69.4828V6.00171H73.1847V11.6261H76.5397V14.6268H73.1847Z" fill="black"/>
<path d="M86.5898 14.0388C83.657 14.0388 82.5713 14.9436 82.3979 17.2506H78.8393C79.0127 13.8277 81.2142 11.1362 86.5898 11.1362C90.5329 11.1362 93.4733 12.6365 93.4733 17.3863V25.8757C93.4733 27.1348 93.7523 27.7983 95.1847 27.655V29.4042C94.3479 29.7208 93.7523 29.7887 93.0511 29.7887C91.0984 29.7887 90.1861 29.0875 89.8393 27.3459H89.7714C88.6556 28.9141 86.6275 29.9998 83.8681 29.9998C80.2341 29.9998 78.0024 27.9038 78.0024 24.9031C78.0024 20.9902 80.8976 19.7688 85.3684 18.8942C88.1279 18.374 89.8016 18.0197 89.8016 16.3082C89.8016 15.019 89.0326 14.0388 86.5898 14.0388ZM89.8091 22.6941V20.0025C89.2135 20.4247 87.781 20.8394 86.0696 21.1937C83.0312 21.8572 81.7043 22.7318 81.7043 24.5488C81.7043 26.1924 82.6844 27.0971 84.6748 27.0971C87.7132 27.0971 89.8091 25.5968 89.8091 22.6941Z" fill="black"/>
<path d="M114.184 20.568C114.184 26.4336 110.799 29.9998 106.223 29.9998C103.463 29.9998 101.714 28.6351 100.772 27.4138H100.704V29.472H97.0396V4.50146H100.704V13.79H100.772C101.714 12.4254 103.463 11.1362 106.223 11.1362C110.799 11.1362 114.184 14.7023 114.184 20.568ZM110.512 20.568C110.512 17.0772 108.801 14.1444 105.589 14.1444C102.589 14.1444 100.734 16.5872 100.734 20.568C100.734 24.5488 102.589 26.9916 105.589 26.9916C108.801 26.9916 110.512 24.0587 110.512 20.568Z" fill="black"/>
<path d="M129.06 24.0286H132.724C131.819 27.4138 129.158 29.9998 124.589 29.9998C119.032 29.9998 115.647 26.1547 115.647 20.568C115.647 14.9813 119.032 11.1362 124.415 11.1362C130.175 11.1362 133.01 15.1547 133.01 21.5104H119.319C119.319 24.5111 121.241 26.9916 124.491 26.9916C127.529 26.9916 128.75 25.1067 129.067 24.021L129.06 24.0286ZM119.311 18.7887H129.339C129.339 16.0292 127.386 14.0388 124.415 14.0388C121.445 14.0388 119.319 16.0292 119.319 18.7887H119.311Z" fill="black"/>
<path d="M138.868 4.50146V29.472H135.167V4.50146H138.868Z" fill="black"/>
<path d="M149.974 29.9998C144.387 29.9998 140.994 26.1245 140.994 20.568C140.994 15.0114 144.379 11.1362 149.974 11.1362C155.568 11.1362 158.953 15.0114 158.953 20.568C158.953 26.1245 155.568 29.9998 149.974 29.9998ZM149.974 26.9916C153.464 26.9916 155.281 24.2321 155.281 20.568C155.281 16.9038 153.464 14.1444 149.974 14.1444C146.483 14.1444 144.666 16.8661 144.666 20.568C144.666 24.2698 146.483 26.9916 149.974 26.9916Z" fill="black"/>
</g>
</g>
<defs>
<clipPath id="clip0_175_161">
<rect width="159" height="34" fill="white"/>
</clipPath>
</defs>
</svg>
